# Procedural NOMAD visual asset; metres; +Z up; ground origin.
# Collision footprints are separate; foliage is not collision geometry.
mtllib grass_clump.mtl
o grass_clump
s off
v 0.08800000 -0.02600000 0.00000000
v 0.08800000 0.02600000 0.00000000
v 0.10200000 0.02600000 0.00000000
v 0.10200000 -0.02600000 0.00000000
v 0.30000000 0.00000000 0.24500000
v 0.08061017 0.04384062 0.00000000
v 0.04384062 0.08061017 0.00000000
v 0.05374012 0.09050967 0.00000000
v 0.09050967 0.05374012 0.00000000
v 0.17324116 0.17324116 0.27700000
v 0.02600000 0.08800000 0.00000000
v -0.02600000 0.08800000 0.00000000
v -0.02600000 0.10200000 0.00000000
v 0.02600000 0.10200000 0.00000000
v 0.00000000 0.30000000 0.30900000
v -0.04384062 0.08061017 0.00000000
v -0.08061017 0.04384062 0.00000000
v -0.09050967 0.05374012 0.00000000
v -0.05374012 0.09050967 0.00000000
v -0.17324116 0.17324116 0.24500000
v -0.08800000 0.02600000 0.00000000
v -0.08800000 -0.02600000 0.00000000
v -0.10200000 -0.02600000 0.00000000
v -0.10200000 0.02600000 0.00000000
v -0.30000000 0.00000000 0.27700000
v -0.08061017 -0.04384062 0.00000000
v -0.04384062 -0.08061017 0.00000000
v -0.05374012 -0.09050967 0.00000000
v -0.09050967 -0.05374012 0.00000000
v -0.17324116 -0.17324116 0.30900000
v -0.02600000 -0.08800000 0.00000000
v 0.02600000 -0.08800000 0.00000000
v 0.02600000 -0.10200000 0.00000000
v -0.02600000 -0.10200000 0.00000000
v -0.00000000 -0.30000000 0.24500000
v 0.04384062 -0.08061017 0.00000000
v 0.08061017 -0.04384062 0.00000000
v 0.09050967 -0.05374012 0.00000000
v 0.05374012 -0.09050967 0.00000000
v 0.17324116 -0.17324116 0.27700000
v 0.00233973 -0.02682398 0.00000000
v -0.01549095 0.02202341 0.00000000
v -0.00233973 0.02682398 0.00000000
v 0.01549095 -0.02202341 0.00000000
v 0.04227177 0.01543040 0.35000000
vn 0.77776210 0.00000000 -0.62855876
vn 0.00000000 0.99441613 0.10552988
vn -0.75619805 0.00000000 0.65434280
vn 0.00000000 -0.99441613 0.10552988
vn 0.00000000 0.00000000 -1.00000000
vn 0.00000000 0.00000000 -1.00000000
vn 0.62831987 0.62831987 -0.45872463
vn -0.70401233 0.70401233 0.09345205
vn -0.61516683 -0.61516683 0.49309181
vn 0.70401233 -0.70401233 0.09345205
vn 0.00000000 0.00000000 -1.00000000
vn -0.00000000 0.00000000 -1.00000000
vn 0.00000000 0.84197436 -0.53951755
vn -0.99647872 0.00000000 0.08384611
vn 0.00000000 -0.82458658 0.56573578
vn 0.99647872 -0.00000000 0.08384611
vn -0.00000000 0.00000000 -1.00000000
vn 0.00000000 -0.00000000 -1.00000000
vn -0.61069349 0.61069349 -0.50409019
vn -0.70315839 -0.70315839 0.10552988
vn 0.59535506 -0.59535506 0.53954120
vn 0.70315839 0.70315839 0.10552988
vn 0.00000000 0.00000000 -1.00000000
vn 0.00000000 -0.00000000 -1.00000000
vn -0.81353498 -0.00000000 -0.58151598
vn 0.00000000 -0.99562378 0.09345205
vn 0.79411365 -0.00000000 0.60776929
vn 0.00000000 0.99562378 0.09345205
vn 0.00000000 0.00000000 -1.00000000
vn 0.00000000 0.00000000 -1.00000000
vn -0.64171998 -0.64171998 -0.41998920
vn 0.70461686 -0.70461686 0.08384611
vn 0.63040223 0.63040223 0.45297467
vn -0.70461686 0.70461686 0.08384611
vn 0.00000000 0.00000000 -1.00000000
vn 0.00000000 0.00000000 -1.00000000
vn 0.00000000 -0.77776210 -0.62855876
vn 0.99441613 -0.00000000 0.10552988
vn 0.00000000 0.75619805 0.65434280
vn -0.99441613 0.00000000 0.10552988
vn 0.00000000 0.00000000 -1.00000000
vn 0.00000000 0.00000000 -1.00000000
vn 0.62831987 -0.62831987 -0.45872463
vn 0.70401233 0.70401233 0.09345205
vn -0.61516683 0.61516683 0.49309181
vn -0.70401233 -0.70401233 0.09345205
vn 0.00000000 0.00000000 -1.00000000
vn 0.00000000 0.00000000 -1.00000000
vn 0.93388464 0.34089450 -0.10793712
vn -0.34195559 0.93679149 0.07408159
vn -0.92917364 -0.33917486 0.14695834
vn 0.34195559 -0.93679149 0.07408159
vn 0.00000000 0.00000000 -1.00000000
vn -0.00000000 0.00000000 -1.00000000
usemtl grass_mid
f 4//1 3//1 5//1
f 3//2 2//2 5//2
f 2//3 1//3 5//3
f 1//4 4//4 5//4
f 4//5 2//5 3//5
f 4//6 1//6 2//6
usemtl grass_dark
f 9//7 8//7 10//7
f 8//8 7//8 10//8
f 7//9 6//9 10//9
f 6//10 9//10 10//10
f 9//11 7//11 8//11
f 9//12 6//12 7//12
usemtl grass_light
f 14//13 13//13 15//13
f 13//14 12//14 15//14
f 12//15 11//15 15//15
f 11//16 14//16 15//16
f 14//17 12//17 13//17
f 14//18 11//18 12//18
usemtl grass_mid
f 19//19 18//19 20//19
f 18//20 17//20 20//20
f 17//21 16//21 20//21
f 16//22 19//22 20//22
f 19//23 17//23 18//23
f 19//24 16//24 17//24
usemtl grass_dark
f 24//25 23//25 25//25
f 23//26 22//26 25//26
f 22//27 21//27 25//27
f 21//28 24//28 25//28
f 24//29 22//29 23//29
f 24//30 21//30 22//30
usemtl grass_light
f 29//31 28//31 30//31
f 28//32 27//32 30//32
f 27//33 26//33 30//33
f 26//34 29//34 30//34
f 29//35 27//35 28//35
f 29//36 26//36 27//36
usemtl grass_mid
f 34//37 33//37 35//37
f 33//38 32//38 35//38
f 32//39 31//39 35//39
f 31//40 34//40 35//40
f 34//41 32//41 33//41
f 34//42 31//42 32//42
usemtl grass_dark
f 39//43 38//43 40//43
f 38//44 37//44 40//44
f 37//45 36//45 40//45
f 36//46 39//46 40//46
f 39//47 37//47 38//47
f 39//48 36//48 37//48
usemtl grass_light
f 44//49 43//49 45//49
f 43//50 42//50 45//50
f 42//51 41//51 45//51
f 41//52 44//52 45//52
f 44//53 42//53 43//53
f 44//54 41//54 42//54
