# Procedural NOMAD visual asset; metres; +Z up; ground origin.
# Collision footprints are separate; foliage is not collision geometry.
mtllib rock.mtl
o rock
s off
v 0.38118774 0.01136925 0.00000000
v 0.36701186 0.19995695 0.00000000
v 0.18383140 0.31287058 0.00000000
v -0.02516270 0.38604958 0.00000000
v -0.26409044 0.35605377 0.00000000
v -0.38369530 0.18377931 0.00000000
v -0.40974012 0.01136925 0.00000000
v -0.36195077 -0.15058437 0.00000000
v -0.22925087 -0.28305463 0.00000000
v -0.02516270 -0.33742893 0.00000000
v 0.20187240 -0.31615858 0.00000000
v 0.33938150 -0.16393165 0.00000000
v 0.55000000 -0.00316508 0.35000000
v 0.54680366 0.25789468 0.35000000
v 0.30096667 0.42536218 0.35000000
v 0.00392098 0.50000000 0.35000000
v -0.30566505 0.44345326 0.35000000
v -0.55000000 0.26320274 0.35000000
v -0.50230385 -0.00316508 0.35000000
v -0.43835622 -0.21584599 0.35000000
v -0.26016070 -0.38413744 0.35000000
v 0.00392098 -0.50000000 0.35000000
v 0.28931090 -0.41487738 0.35000000
v 0.48374744 -0.23390256 0.35000000
v 0.33268904 0.04528269 0.87000000
v 0.23179675 0.19961703 0.87000000
v 0.09270328 0.30762519 0.87000000
v -0.08914678 0.39758160 0.87000000
v -0.29426471 0.34119214 0.87000000
v -0.44500061 0.21640459 0.87000000
v -0.45156060 0.04528269 0.87000000
v -0.41570068 -0.11174955 0.87000000
v -0.31210167 -0.27635890 0.87000000
v -0.08914678 -0.29306220 0.87000000
v 0.12984876 -0.27064702 0.87000000
v 0.30125292 -0.14245152 0.87000000
v -0.02516270 0.01136925 0.00000000
v -0.10078025 0.05012747 1.10000000
vn 0.88303283 0.06637635 -0.46459359
vn 0.90083034 0.01102950 -0.43403115
vn 0.47865167 0.77651948 -0.40976832
vn 0.51795291 0.76033848 -0.39193135
vn 0.31338387 0.89500235 -0.31742928
vn 0.22678474 0.90256430 -0.36598685
vn -0.12048184 0.95968238 -0.25395640
vn -0.17184754 0.94084285 -0.29203280
vn -0.72887486 0.50603545 -0.46116110
vn -0.57292113 0.77661168 -0.26198412
vn -0.95805283 0.14472653 -0.24736410
vn -0.90503366 -0.16205646 -0.39325791
vn -0.92776607 -0.27376566 -0.25357935
vn -0.92564493 -0.27831741 -0.25636086
vn -0.68261871 -0.68380203 -0.25777217
vn -0.66024201 -0.69909768 -0.27448666
vn -0.23672631 -0.88852709 -0.39303978
vn -0.38483048 -0.87713133 -0.28730842
vn 0.08924310 -0.95256127 -0.29096854
vn 0.25879132 -0.86764755 -0.42451711
vn 0.67920370 -0.61353592 -0.40281014
vn 0.63758260 -0.68500889 -0.35249291
vn 0.87734198 -0.20923090 -0.43184891
vn 0.87597036 -0.25152081 -0.41159836
vn 0.85473622 0.01046513 0.51895711
vn 0.80197718 0.52427290 0.28630495
vn 0.52043507 0.76398223 0.38141643
vn 0.55718240 0.71754247 0.41794806
vn 0.23724884 0.94420962 0.22843202
vn 0.41440153 0.83772726 0.35564646
vn -0.17627860 0.96510232 0.19365785
vn -0.26242801 0.95458769 0.14104568
vn -0.58297574 0.79024100 0.18883444
vn -0.62913668 0.75995957 0.16324364
vn -0.97817597 -0.17515341 0.11177234
vn -0.97886577 0.03752496 0.20103154
vn -0.95295558 -0.28652902 0.09887762
vn -0.96842325 -0.22114931 0.11510603
vn -0.68431163 -0.72458381 0.08182842
vn -0.83775266 -0.52725044 0.14204735
vn -0.38561066 -0.87890957 0.28075325
vn -0.07326860 -0.97798588 0.19538510
vn 0.26948721 -0.90350757 0.33324274
vn 0.09407511 -0.91911049 0.38260396
vn 0.63942561 -0.68698900 0.34522602
vn 0.55497932 -0.74203671 0.37600463
vn 0.88382607 -0.25377645 0.39299999
vn 0.92341822 -0.15462651 0.35126831
vn 0.00000000 0.00000000 -1.00000000
vn 0.45048954 0.29449648 0.84281136
vn 0.00000000 0.00000000 -1.00000000
vn 0.35644926 0.45903726 0.81377437
vn 0.00000000 0.00000000 -1.00000000
vn 0.26060554 0.52682327 0.80903770
vn 0.00000000 0.00000000 -1.00000000
vn -0.15097144 0.54916196 0.82196640
vn 0.00000000 0.00000000 -1.00000000
vn -0.35189748 0.42507116 0.83395604
vn 0.00000000 0.00000000 -1.00000000
vn -0.54840564 0.02102321 0.83594813
vn -0.00000000 0.00000000 -1.00000000
vn -0.54289557 -0.12397573 0.83059883
vn 0.00000000 0.00000000 -1.00000000
vn -0.46224675 -0.29092095 0.83767115
vn 0.00000000 0.00000000 -1.00000000
vn -0.04174511 -0.55721180 0.82932042
vn 0.00000000 -0.00000000 -1.00000000
vn 0.05675510 -0.55449532 0.83024924
vn 0.00000000 0.00000000 -1.00000000
vn 0.30137194 -0.40295023 0.86417942
vn 0.00000000 0.00000000 -1.00000000
vn 0.46659490 -0.07813138 0.88101344
usemtl stone_mid
f 1//1 2//1 14//1
f 1//2 14//2 13//2
usemtl stone_dark
f 2//3 3//3 15//3
f 2//4 15//4 14//4
usemtl stone_mid
f 3//5 4//5 16//5
f 3//6 16//6 15//6
usemtl stone_light
f 4//7 5//7 17//7
f 4//8 17//8 16//8
usemtl stone_mid
f 5//9 6//9 18//9
f 5//10 18//10 17//10
usemtl stone_dark
f 6//11 7//11 19//11
f 6//12 19//12 18//12
usemtl stone_mid
f 7//13 8//13 20//13
f 7//14 20//14 19//14
usemtl stone_light
f 8//15 9//15 21//15
f 8//16 21//16 20//16
usemtl stone_mid
f 9//17 10//17 22//17
f 9//18 22//18 21//18
usemtl stone_dark
f 10//19 11//19 23//19
f 10//20 23//20 22//20
usemtl stone_mid
f 11//21 12//21 24//21
f 11//22 24//22 23//22
usemtl stone_light
f 12//23 1//23 13//23
f 12//24 13//24 24//24
usemtl stone_mid
f 13//25 14//25 26//25
f 13//26 26//26 25//26
usemtl stone_dark
f 14//27 15//27 27//27
f 14//28 27//28 26//28
usemtl stone_mid
f 15//29 16//29 28//29
f 15//30 28//30 27//30
usemtl stone_light
f 16//31 17//31 29//31
f 16//32 29//32 28//32
usemtl stone_mid
f 17//33 18//33 30//33
f 17//34 30//34 29//34
usemtl stone_dark
f 18//35 19//35 31//35
f 18//36 31//36 30//36
usemtl stone_mid
f 19//37 20//37 32//37
f 19//38 32//38 31//38
usemtl stone_light
f 20//39 21//39 33//39
f 20//40 33//40 32//40
usemtl stone_mid
f 21//41 22//41 34//41
f 21//42 34//42 33//42
usemtl stone_dark
f 22//43 23//43 35//43
f 22//44 35//44 34//44
usemtl stone_mid
f 23//45 24//45 36//45
f 23//46 36//46 35//46
usemtl stone_light
f 24//47 13//47 25//47
f 24//48 25//48 36//48
usemtl stone_dark
f 37//49 2//49 1//49
usemtl stone_mid
f 25//50 26//50 38//50
usemtl stone_dark
f 37//51 3//51 2//51
f 26//52 27//52 38//52
f 37//53 4//53 3//53
usemtl stone_mid
f 27//54 28//54 38//54
usemtl stone_dark
f 37//55 5//55 4//55
usemtl stone_light
f 28//56 29//56 38//56
usemtl stone_dark
f 37//57 6//57 5//57
usemtl stone_mid
f 29//58 30//58 38//58
usemtl stone_dark
f 37//59 7//59 6//59
f 30//60 31//60 38//60
f 37//61 8//61 7//61
usemtl stone_mid
f 31//62 32//62 38//62
usemtl stone_dark
f 37//63 9//63 8//63
usemtl stone_light
f 32//64 33//64 38//64
usemtl stone_dark
f 37//65 10//65 9//65
usemtl stone_mid
f 33//66 34//66 38//66
usemtl stone_dark
f 37//67 11//67 10//67
f 34//68 35//68 38//68
f 37//69 12//69 11//69
usemtl stone_mid
f 35//70 36//70 38//70
usemtl stone_dark
f 37//71 1//71 12//71
usemtl stone_light
f 36//72 25//72 38//72
