# Procedural NOMAD visual asset; metres; +Z up; ground origin.
# Collision footprints are separate; foliage is not collision geometry.
mtllib shrub.mtl
o shrub
s off
v 0.06500000 0.00000000 0.00000000
v 0.05258610 0.03820604 0.00000000
v 0.02008610 0.06181867 0.00000000
v -0.02008610 0.06181867 0.00000000
v -0.05258610 0.03820604 0.00000000
v -0.06500000 0.00000000 0.00000000
v -0.05258610 -0.03820604 0.00000000
v -0.02008610 -0.06181867 0.00000000
v 0.02008610 -0.06181867 0.00000000
v 0.05258610 -0.03820604 0.00000000
v 0.06500000 0.00000000 0.38000000
v 0.05258610 0.03820604 0.38000000
v 0.02008610 0.06181867 0.38000000
v -0.02008610 0.06181867 0.38000000
v -0.05258610 0.03820604 0.38000000
v -0.06500000 0.00000000 0.38000000
v -0.05258610 -0.03820604 0.38000000
v -0.02008610 -0.06181867 0.38000000
v 0.02008610 -0.06181867 0.38000000
v 0.05258610 -0.03820604 0.38000000
v 0.00000000 0.00000000 0.00000000
v 0.00000000 0.00000000 0.38000000
v 0.39000000 0.00000000 0.18000000
v 0.32484090 0.18754698 0.18000000
v 0.18044002 0.31253129 0.18000000
v 0.00000000 0.39000000 0.18000000
v -0.18111190 0.31369501 0.18000000
v -0.33673516 0.19441414 0.18000000
v -0.39000000 0.00000000 0.18000000
v -0.33250831 -0.19197376 0.18000000
v -0.19154319 -0.33176253 0.18000000
v -0.00000000 -0.39000000 0.18000000
v 0.18969685 -0.32856459 0.18000000
v 0.31407696 -0.18133242 0.18000000
v 0.65000000 0.00000000 0.47000000
v 0.56143284 0.32414340 0.47000000
v 0.30877373 0.53481179 0.47000000
v 0.00000000 0.65000000 0.47000000
v -0.31160416 0.53971423 0.47000000
v -0.53075662 0.30643248 0.47000000
v -0.65000000 0.00000000 0.47000000
v -0.52853684 -0.30515089 0.47000000
v -0.31202387 -0.54044120 0.47000000
v -0.00000000 -0.65000000 0.47000000
v 0.30525429 -0.52871594 0.47000000
v 0.56181875 -0.32436621 0.47000000
v 0.47000000 0.00000000 0.78000000
v 0.37015212 0.21370743 0.78000000
v 0.22899109 0.39662420 0.78000000
v 0.00000000 0.47000000 0.78000000
v -0.22701264 0.39319742 0.78000000
v -0.37732799 0.21785042 0.78000000
v -0.47000000 0.00000000 0.78000000
v -0.37030620 -0.21379638 0.78000000
v -0.22344959 -0.38702605 0.78000000
v -0.00000000 -0.47000000 0.78000000
v 0.21847787 -0.37841478 0.78000000
v 0.39493514 -0.22801591 0.78000000
v 0.00000000 0.00000000 0.13000000
v 0.03500000 -0.02500000 1.00000000
vn 0.95105652 0.30901699 0.00000000
vn 0.95105652 0.30901699 -0.00000000
vn 0.58778525 0.80901699 0.00000000
vn 0.58778525 0.80901699 -0.00000000
vn 0.00000000 1.00000000 0.00000000
vn 0.00000000 1.00000000 -0.00000000
vn -0.58778525 0.80901699 0.00000000
vn -0.58778525 0.80901699 0.00000000
vn -0.95105652 0.30901699 0.00000000
vn -0.95105652 0.30901699 0.00000000
vn -0.95105652 -0.30901699 0.00000000
vn -0.95105652 -0.30901699 0.00000000
vn -0.58778525 -0.80901699 0.00000000
vn -0.58778525 -0.80901699 0.00000000
vn -0.00000000 -1.00000000 0.00000000
vn -0.00000000 -1.00000000 0.00000000
vn 0.58778525 -0.80901699 0.00000000
vn 0.58778525 -0.80901699 0.00000000
vn 0.95105652 -0.30901699 0.00000000
vn 0.95105652 -0.30901699 0.00000000
vn 0.00000000 0.00000000 -1.00000000
vn 0.00000000 0.00000000 1.00000000
vn 0.00000000 0.00000000 -1.00000000
vn 0.00000000 0.00000000 1.00000000
vn 0.00000000 0.00000000 -1.00000000
vn 0.00000000 -0.00000000 1.00000000
vn 0.00000000 0.00000000 -1.00000000
vn 0.00000000 0.00000000 1.00000000
vn 0.00000000 0.00000000 -1.00000000
vn 0.00000000 0.00000000 1.00000000
vn -0.00000000 0.00000000 -1.00000000
vn 0.00000000 0.00000000 1.00000000
vn 0.00000000 0.00000000 -1.00000000
vn 0.00000000 0.00000000 1.00000000
vn 0.00000000 -0.00000000 -1.00000000
vn 0.00000000 0.00000000 1.00000000
vn 0.00000000 0.00000000 -1.00000000
vn 0.00000000 0.00000000 1.00000000
vn 0.00000000 0.00000000 -1.00000000
vn -0.00000000 0.00000000 1.00000000
vn 0.69336047 0.24089294 -0.67913315
vn 0.72962345 0.19935829 -0.65414516
vn 0.49394551 0.57068099 -0.65600384
vn 0.47974912 0.57537342 -0.66240940
vn 0.30448855 0.70921430 -0.63584731
vn 0.26332680 0.70587427 -0.65757168
vn -0.28960686 0.68738953 -0.66605068
vn -0.25482507 0.71998910 -0.64550746
vn -0.49518836 0.64606189 -0.58085499
vn -0.55215761 0.51871480 -0.65273037
vn -0.72954464 0.19987784 -0.65407451
vn -0.74068778 0.28822700 -0.60688287
vn -0.76287542 -0.22846349 -0.60483512
vn -0.71387732 -0.28415384 -0.64002794
vn -0.54890543 -0.55352459 -0.62634923
vn -0.58539102 -0.53867388 -0.60592723
vn -0.22079450 -0.72619373 -0.65107024
vn -0.25660881 -0.73082285 -0.63249497
vn 0.24301597 -0.75037122 -0.61472455
vn 0.28368022 -0.71398174 -0.64012156
vn 0.54808064 -0.46301245 -0.69658243
vn 0.48931777 -0.61434653 -0.61898826
vn 0.71082869 -0.29762067 -0.63729469
vn 0.69829808 -0.18983728 -0.69017505
vn 0.79430500 0.21703152 0.56743007
vn 0.80181322 0.37462128 0.46556896
vn 0.57113910 0.68497938 0.45233106
vn 0.64669158 0.49906657 0.57682108
vn 0.30702809 0.82302003 0.47788260
vn 0.27260031 0.85073067 0.44938447
vn -0.29399612 0.83066396 0.47282520
vn -0.28080256 0.82999465 0.48193237
vn -0.63689473 0.59831961 0.48618798
vn -0.67502774 0.57866418 0.45769565
vn -0.81962414 0.31894385 0.47591079
vn -0.80038051 0.34047616 0.49342377
vn -0.80257947 -0.31946111 0.50379638
vn -0.80203348 -0.37399028 0.46569686
vn -0.64603412 -0.59447736 0.47878658
vn -0.65985846 -0.55939939 0.50165639
vn -0.29054817 -0.82748227 0.48047358
vn -0.30328509 -0.81674946 0.49085484
vn 0.32299836 -0.81293977 0.48456268
vn 0.34081323 -0.81301492 0.47207318
vn 0.53927818 -0.67707265 0.50075110
vn 0.56824089 -0.66669541 0.48230646
vn 0.84183702 -0.22885935 0.48880859
vn 0.81142292 -0.26712762 0.51984197
vn 0.12704039 0.04413741 -0.99091505
vn 0.43271489 0.20217204 0.87856946
vn 0.09142662 0.10562994 -0.99019366
vn 0.37348909 0.28823001 0.88171955
vn 0.05451455 0.12697522 -0.99040671
vn 0.13149233 0.41036109 0.90239323
vn -0.05349938 0.12698220 -0.99046117
vn -0.13350223 0.39460516 0.90910061
vn -0.08388178 0.10943880 -0.99044788
vn -0.32124468 0.27538540 0.90607104
vn -0.12708721 0.03481886 -0.99128023
vn -0.38707586 0.16465931 0.90722632
vn -0.12707220 -0.03805518 -0.99116318
vn -0.40012517 -0.18657940 0.89726695
vn -0.09418536 -0.09497795 -0.99101378
vn -0.34663249 -0.29385999 0.89078181
vn -0.03863462 -0.12706938 -0.99114113
vn -0.15874406 -0.42749917 0.88996898
vn 0.04114868 -0.12705661 -0.99104157
vn 0.18743664 -0.44713284 0.87460833
vn 0.10597113 -0.08952324 -0.99033111
vn 0.31995832 -0.37539492 0.86988811
vn 0.12698445 -0.05316780 -0.99047874
vn 0.45307602 -0.14915664 0.87890524
usemtl twig
f 1//1 2//1 12//1
f 1//2 12//2 11//2
f 2//3 3//3 13//3
f 2//4 13//4 12//4
f 3//5 4//5 14//5
f 3//6 14//6 13//6
f 4//7 5//7 15//7
f 4//8 15//8 14//8
f 5//9 6//9 16//9
f 5//10 16//10 15//10
f 6//11 7//11 17//11
f 6//12 17//12 16//12
f 7//13 8//13 18//13
f 7//14 18//14 17//14
f 8//15 9//15 19//15
f 8//16 19//16 18//16
f 9//17 10//17 20//17
f 9//18 20//18 19//18
f 10//19 1//19 11//19
f 10//20 11//20 20//20
f 21//21 2//21 1//21
f 22//22 11//22 12//22
f 21//23 3//23 2//23
f 22//24 12//24 13//24
f 21//25 4//25 3//25
f 22//26 13//26 14//26
f 21//27 5//27 4//27
f 22//28 14//28 15//28
f 21//29 6//29 5//29
f 22//30 15//30 16//30
f 21//31 7//31 6//31
f 22//32 16//32 17//32
f 21//33 8//33 7//33
f 22//34 17//34 18//34
f 21//35 9//35 8//35
f 22//36 18//36 19//36
f 21//37 10//37 9//37
f 22//38 19//38 20//38
f 21//39 1//39 10//39
f 22//40 20//40 11//40
usemtl leaf_mid
f 23//41 24//41 36//41
f 23//42 36//42 35//42
usemtl leaf_light
f 24//43 25//43 37//43
f 24//44 37//44 36//44
usemtl leaf_mid
f 25//45 26//45 38//45
f 25//46 38//46 37//46
usemtl leaf_dark
f 26//47 27//47 39//47
f 26//48 39//48 38//48
usemtl leaf_mid
f 27//49 28//49 40//49
f 27//50 40//50 39//50
usemtl leaf_light
f 28//51 29//51 41//51
f 28//52 41//52 40//52
usemtl leaf_mid
f 29//53 30//53 42//53
f 29//54 42//54 41//54
usemtl leaf_dark
f 30//55 31//55 43//55
f 30//56 43//56 42//56
usemtl leaf_mid
f 31//57 32//57 44//57
f 31//58 44//58 43//58
usemtl leaf_light
f 32//59 33//59 45//59
f 32//60 45//60 44//60
usemtl leaf_mid
f 33//61 34//61 46//61
f 33//62 46//62 45//62
usemtl leaf_dark
f 34//63 23//63 35//63
f 34//64 35//64 46//64
usemtl leaf_mid
f 35//65 36//65 48//65
f 35//66 48//66 47//66
usemtl leaf_light
f 36//67 37//67 49//67
f 36//68 49//68 48//68
usemtl leaf_mid
f 37//69 38//69 50//69
f 37//70 50//70 49//70
usemtl leaf_dark
f 38//71 39//71 51//71
f 38//72 51//72 50//72
usemtl leaf_mid
f 39//73 40//73 52//73
f 39//74 52//74 51//74
usemtl leaf_light
f 40//75 41//75 53//75
f 40//76 53//76 52//76
usemtl leaf_mid
f 41//77 42//77 54//77
f 41//78 54//78 53//78
usemtl leaf_dark
f 42//79 43//79 55//79
f 42//80 55//80 54//80
usemtl leaf_mid
f 43//81 44//81 56//81
f 43//82 56//82 55//82
usemtl leaf_light
f 44//83 45//83 57//83
f 44//84 57//84 56//84
usemtl leaf_mid
f 45//85 46//85 58//85
f 45//86 58//86 57//86
usemtl leaf_dark
f 46//87 35//87 47//87
f 46//88 47//88 58//88
f 59//89 24//89 23//89
usemtl leaf_mid
f 47//90 48//90 60//90
usemtl leaf_dark
f 59//91 25//91 24//91
usemtl leaf_light
f 48//92 49//92 60//92
usemtl leaf_dark
f 59//93 26//93 25//93
usemtl leaf_mid
f 49//94 50//94 60//94
usemtl leaf_dark
f 59//95 27//95 26//95
f 50//96 51//96 60//96
f 59//97 28//97 27//97
usemtl leaf_mid
f 51//98 52//98 60//98
usemtl leaf_dark
f 59//99 29//99 28//99
usemtl leaf_light
f 52//100 53//100 60//100
usemtl leaf_dark
f 59//101 30//101 29//101
usemtl leaf_mid
f 53//102 54//102 60//102
usemtl leaf_dark
f 59//103 31//103 30//103
f 54//104 55//104 60//104
f 59//105 32//105 31//105
usemtl leaf_mid
f 55//106 56//106 60//106
usemtl leaf_dark
f 59//107 33//107 32//107
usemtl leaf_light
f 56//108 57//108 60//108
usemtl leaf_dark
f 59//109 34//109 33//109
usemtl leaf_mid
f 57//110 58//110 60//110
usemtl leaf_dark
f 59//111 23//111 34//111
f 58//112 47//112 60//112
