# Procedural NOMAD visual asset; metres; +Z up; ground origin.
# Collision footprints are separate; foliage is not collision geometry.
mtllib pine_tree.mtl
o pine_tree
s off
v 0.18000000 0.00000000 0.00000000
v 0.14562306 0.10580135 0.00000000
v 0.05562306 0.17119017 0.00000000
v -0.05562306 0.17119017 0.00000000
v -0.14562306 0.10580135 0.00000000
v -0.18000000 0.00000000 0.00000000
v -0.14562306 -0.10580135 0.00000000
v -0.05562306 -0.17119017 0.00000000
v 0.05562306 -0.17119017 0.00000000
v 0.14562306 -0.10580135 0.00000000
v 0.18000000 0.00000000 3.35000000
v 0.14562306 0.10580135 3.35000000
v 0.05562306 0.17119017 3.35000000
v -0.05562306 0.17119017 3.35000000
v -0.14562306 0.10580135 3.35000000
v -0.18000000 0.00000000 3.35000000
v -0.14562306 -0.10580135 3.35000000
v -0.05562306 -0.17119017 3.35000000
v 0.05562306 -0.17119017 3.35000000
v 0.14562306 -0.10580135 3.35000000
v 0.00000000 0.00000000 0.00000000
v 0.00000000 0.00000000 3.35000000
v 0.90000000 0.00000000 1.35000000
v 0.77942286 0.45000000 1.35000000
v 0.45000000 0.77942286 1.35000000
v 0.00000000 0.90000000 1.35000000
v -0.45000000 0.77942286 1.35000000
v -0.77942286 0.45000000 1.35000000
v -0.90000000 0.00000000 1.35000000
v -0.77942286 -0.45000000 1.35000000
v -0.45000000 -0.77942286 1.35000000
v -0.00000000 -0.90000000 1.35000000
v 0.45000000 -0.77942286 1.35000000
v 0.77942286 -0.45000000 1.35000000
v 0.00000000 0.00000000 1.35000000
v 0.00000000 0.00000000 3.25000000
v 0.73000000 0.00000000 2.15000000
v 0.63219854 0.36500000 2.15000000
v 0.36500000 0.63219854 2.15000000
v 0.00000000 0.73000000 2.15000000
v -0.36500000 0.63219854 2.15000000
v -0.63219854 0.36500000 2.15000000
v -0.73000000 0.00000000 2.15000000
v -0.63219854 -0.36500000 2.15000000
v -0.36500000 -0.63219854 2.15000000
v -0.00000000 -0.73000000 2.15000000
v 0.36500000 -0.63219854 2.15000000
v 0.63219854 -0.36500000 2.15000000
v 0.00000000 0.00000000 2.15000000
v 0.00000000 0.00000000 3.95000000
v 0.53000000 0.00000000 3.05000000
v 0.45899346 0.26500000 3.05000000
v 0.26500000 0.45899346 3.05000000
v 0.00000000 0.53000000 3.05000000
v -0.26500000 0.45899346 3.05000000
v -0.45899346 0.26500000 3.05000000
v -0.53000000 0.00000000 3.05000000
v -0.45899346 -0.26500000 3.05000000
v -0.26500000 -0.45899346 3.05000000
v -0.00000000 -0.53000000 3.05000000
v 0.26500000 -0.45899346 3.05000000
v 0.45899346 -0.26500000 3.05000000
v 0.00000000 0.00000000 3.05000000
v 0.00000000 0.00000000 4.50000000
vn 0.95105652 0.30901699 0.00000000
vn 0.95105652 0.30901699 -0.00000000
vn 0.58778525 0.80901699 0.00000000
vn 0.58778525 0.80901699 -0.00000000
vn 0.00000000 1.00000000 0.00000000
vn 0.00000000 1.00000000 -0.00000000
vn -0.58778525 0.80901699 0.00000000
vn -0.58778525 0.80901699 0.00000000
vn -0.95105652 0.30901699 0.00000000
vn -0.95105652 0.30901699 0.00000000
vn -0.95105652 -0.30901699 0.00000000
vn -0.95105652 -0.30901699 0.00000000
vn -0.58778525 -0.80901699 0.00000000
vn -0.58778525 -0.80901699 0.00000000
vn -0.00000000 -1.00000000 0.00000000
vn -0.00000000 -1.00000000 0.00000000
vn 0.58778525 -0.80901699 0.00000000
vn 0.58778525 -0.80901699 0.00000000
vn 0.95105652 -0.30901699 0.00000000
vn 0.95105652 -0.30901699 0.00000000
vn 0.00000000 0.00000000 -1.00000000
vn 0.00000000 0.00000000 1.00000000
vn 0.00000000 0.00000000 -1.00000000
vn 0.00000000 0.00000000 1.00000000
vn 0.00000000 0.00000000 -1.00000000
vn 0.00000000 -0.00000000 1.00000000
vn 0.00000000 0.00000000 -1.00000000
vn 0.00000000 0.00000000 1.00000000
vn 0.00000000 0.00000000 -1.00000000
vn 0.00000000 0.00000000 1.00000000
vn -0.00000000 0.00000000 -1.00000000
vn 0.00000000 0.00000000 1.00000000
vn 0.00000000 0.00000000 -1.00000000
vn 0.00000000 0.00000000 1.00000000
vn 0.00000000 -0.00000000 -1.00000000
vn 0.00000000 0.00000000 1.00000000
vn 0.00000000 0.00000000 -1.00000000
vn 0.00000000 0.00000000 1.00000000
vn 0.00000000 0.00000000 -1.00000000
vn -0.00000000 0.00000000 1.00000000
vn 0.87835167 0.23535362 0.41606132
vn 0.00000000 0.00000000 -1.00000000
vn 0.64299805 0.64299805 0.41606132
vn 0.00000000 0.00000000 -1.00000000
vn 0.23535362 0.87835167 0.41606132
vn 0.00000000 0.00000000 -1.00000000
vn -0.23535362 0.87835167 0.41606132
vn 0.00000000 0.00000000 -1.00000000
vn -0.64299805 0.64299805 0.41606132
vn 0.00000000 0.00000000 -1.00000000
vn -0.87835167 0.23535362 0.41606132
vn 0.00000000 0.00000000 -1.00000000
vn -0.87835167 -0.23535362 0.41606132
vn -0.00000000 0.00000000 -1.00000000
vn -0.64299805 -0.64299805 0.41606132
vn 0.00000000 0.00000000 -1.00000000
vn -0.23535362 -0.87835167 0.41606132
vn 0.00000000 0.00000000 -1.00000000
vn 0.23535362 -0.87835167 0.41606132
vn 0.00000000 -0.00000000 -1.00000000
vn 0.64299805 -0.64299805 0.41606132
vn 0.00000000 0.00000000 -1.00000000
vn 0.87835167 -0.23535362 0.41606132
vn 0.00000000 0.00000000 -1.00000000
vn 0.89937947 0.24098800 0.36474834
vn 0.00000000 0.00000000 -1.00000000
vn 0.65839147 0.65839147 0.36474834
vn 0.00000000 0.00000000 -1.00000000
vn 0.24098800 0.89937947 0.36474834
vn 0.00000000 0.00000000 -1.00000000
vn -0.24098800 0.89937947 0.36474834
vn 0.00000000 0.00000000 -1.00000000
vn -0.65839147 0.65839147 0.36474834
vn 0.00000000 0.00000000 -1.00000000
vn -0.89937947 0.24098800 0.36474834
vn 0.00000000 0.00000000 -1.00000000
vn -0.89937947 -0.24098800 0.36474834
vn -0.00000000 0.00000000 -1.00000000
vn -0.65839147 -0.65839147 0.36474834
vn 0.00000000 0.00000000 -1.00000000
vn -0.24098800 -0.89937947 0.36474834
vn 0.00000000 0.00000000 -1.00000000
vn 0.24098800 -0.89937947 0.36474834
vn 0.00000000 -0.00000000 -1.00000000
vn 0.65839147 -0.65839147 0.36474834
vn 0.00000000 0.00000000 -1.00000000
vn 0.89937947 -0.24098800 0.36474834
vn 0.00000000 0.00000000 -1.00000000
vn 0.91082402 0.24405456 0.33292188
vn 0.00000000 0.00000000 -1.00000000
vn 0.66676946 0.66676946 0.33292188
vn 0.00000000 0.00000000 -1.00000000
vn 0.24405456 0.91082402 0.33292188
vn 0.00000000 0.00000000 -1.00000000
vn -0.24405456 0.91082402 0.33292188
vn 0.00000000 0.00000000 -1.00000000
vn -0.66676946 0.66676946 0.33292188
vn 0.00000000 0.00000000 -1.00000000
vn -0.91082402 0.24405456 0.33292188
vn 0.00000000 0.00000000 -1.00000000
vn -0.91082402 -0.24405456 0.33292188
vn -0.00000000 0.00000000 -1.00000000
vn -0.66676946 -0.66676946 0.33292188
vn 0.00000000 0.00000000 -1.00000000
vn -0.24405456 -0.91082402 0.33292188
vn 0.00000000 0.00000000 -1.00000000
vn 0.24405456 -0.91082402 0.33292188
vn 0.00000000 -0.00000000 -1.00000000
vn 0.66676946 -0.66676946 0.33292188
vn 0.00000000 0.00000000 -1.00000000
vn 0.91082402 -0.24405456 0.33292188
vn 0.00000000 0.00000000 -1.00000000
usemtl bark
f 1//1 2//1 12//1
f 1//2 12//2 11//2
f 2//3 3//3 13//3
f 2//4 13//4 12//4
f 3//5 4//5 14//5
f 3//6 14//6 13//6
f 4//7 5//7 15//7
f 4//8 15//8 14//8
f 5//9 6//9 16//9
f 5//10 16//10 15//10
f 6//11 7//11 17//11
f 6//12 17//12 16//12
f 7//13 8//13 18//13
f 7//14 18//14 17//14
f 8//15 9//15 19//15
f 8//16 19//16 18//16
f 9//17 10//17 20//17
f 9//18 20//18 19//18
f 10//19 1//19 11//19
f 10//20 11//20 20//20
f 21//21 2//21 1//21
f 22//22 11//22 12//22
f 21//23 3//23 2//23
f 22//24 12//24 13//24
f 21//25 4//25 3//25
f 22//26 13//26 14//26
f 21//27 5//27 4//27
f 22//28 14//28 15//28
f 21//29 6//29 5//29
f 22//30 15//30 16//30
f 21//31 7//31 6//31
f 22//32 16//32 17//32
f 21//33 8//33 7//33
f 22//34 17//34 18//34
f 21//35 9//35 8//35
f 22//36 18//36 19//36
f 21//37 10//37 9//37
f 22//38 19//38 20//38
f 21//39 1//39 10//39
f 22//40 20//40 11//40
usemtl pine_mid
f 23//41 24//41 36//41
f 35//42 24//42 23//42
usemtl pine_dark
f 24//43 25//43 36//43
usemtl pine_mid
f 35//44 25//44 24//44
f 25//45 26//45 36//45
f 35//46 26//46 25//46
usemtl pine_light
f 26//47 27//47 36//47
usemtl pine_mid
f 35//48 27//48 26//48
f 27//49 28//49 36//49
f 35//50 28//50 27//50
usemtl pine_dark
f 28//51 29//51 36//51
usemtl pine_mid
f 35//52 29//52 28//52
f 29//53 30//53 36//53
f 35//54 30//54 29//54
usemtl pine_light
f 30//55 31//55 36//55
usemtl pine_mid
f 35//56 31//56 30//56
f 31//57 32//57 36//57
f 35//58 32//58 31//58
usemtl pine_dark
f 32//59 33//59 36//59
usemtl pine_mid
f 35//60 33//60 32//60
f 33//61 34//61 36//61
f 35//62 34//62 33//62
usemtl pine_light
f 34//63 23//63 36//63
usemtl pine_mid
f 35//64 23//64 34//64
f 37//65 38//65 50//65
f 49//66 38//66 37//66
usemtl pine_dark
f 38//67 39//67 50//67
usemtl pine_mid
f 49//68 39//68 38//68
f 39//69 40//69 50//69
f 49//70 40//70 39//70
usemtl pine_light
f 40//71 41//71 50//71
usemtl pine_mid
f 49//72 41//72 40//72
f 41//73 42//73 50//73
f 49//74 42//74 41//74
usemtl pine_dark
f 42//75 43//75 50//75
usemtl pine_mid
f 49//76 43//76 42//76
f 43//77 44//77 50//77
f 49//78 44//78 43//78
usemtl pine_light
f 44//79 45//79 50//79
usemtl pine_mid
f 49//80 45//80 44//80
f 45//81 46//81 50//81
f 49//82 46//82 45//82
usemtl pine_dark
f 46//83 47//83 50//83
usemtl pine_mid
f 49//84 47//84 46//84
f 47//85 48//85 50//85
f 49//86 48//86 47//86
usemtl pine_light
f 48//87 37//87 50//87
usemtl pine_mid
f 49//88 37//88 48//88
f 51//89 52//89 64//89
f 63//90 52//90 51//90
usemtl pine_dark
f 52//91 53//91 64//91
usemtl pine_mid
f 63//92 53//92 52//92
f 53//93 54//93 64//93
f 63//94 54//94 53//94
usemtl pine_light
f 54//95 55//95 64//95
usemtl pine_mid
f 63//96 55//96 54//96
f 55//97 56//97 64//97
f 63//98 56//98 55//98
usemtl pine_dark
f 56//99 57//99 64//99
usemtl pine_mid
f 63//100 57//100 56//100
f 57//101 58//101 64//101
f 63//102 58//102 57//102
usemtl pine_light
f 58//103 59//103 64//103
usemtl pine_mid
f 63//104 59//104 58//104
f 59//105 60//105 64//105
f 63//106 60//106 59//106
usemtl pine_dark
f 60//107 61//107 64//107
usemtl pine_mid
f 63//108 61//108 60//108
f 61//109 62//109 64//109
f 63//110 62//110 61//110
usemtl pine_light
f 62//111 51//111 64//111
usemtl pine_mid
f 63//112 51//112 62//112
